<?xml version="1.0" encoding="UTF-8" standalone="no"?>
<!-- Created with Inkscape (http://www.inkscape.org/) -->

<svg
   xmlns:dc="http://purl.org/dc/elements/1.1/"
   xmlns:cc="http://creativecommons.org/ns#"
   xmlns:rdf="http://www.w3.org/1999/02/22-rdf-syntax-ns#"
   xmlns:svg="http://www.w3.org/2000/svg"
   xmlns="http://www.w3.org/2000/svg"
   xmlns:sodipodi="http://sodipodi.sourceforge.net/DTD/sodipodi-0.dtd"
   xmlns:inkscape="http://www.inkscape.org/namespaces/inkscape"
   width="91.699997"
   height="19.200001"
   viewBox="0 0 91.699998 19.200001"
   id="svg2"
   version="1.1"
   inkscape:version="0.91 r13725"
   sodipodi:docname="logo.svg">
  <defs
     id="defs4" />
  <sodipodi:namedview
     id="base"
     pagecolor="#ffffff"
     bordercolor="#666666"
     borderopacity="1.0"
     inkscape:pageopacity="0.0"
     inkscape:pageshadow="2"
     inkscape:zoom="6.5"
     inkscape:cx="84.61987"
     inkscape:cy="-15.321367"
     inkscape:document-units="px"
     inkscape:current-layer="layer1"
     showgrid="false"
     units="px"
     inkscape:window-width="1366"
     inkscape:window-height="708"
     inkscape:window-x="0"
     inkscape:window-y="31"
     inkscape:window-maximized="1" />
  <metadata
     id="metadata7">
    <rdf:RDF>
      <cc:Work
         rdf:about="">
        <dc:format>image/svg+xml</dc:format>
        <dc:type
           rdf:resource="http://purl.org/dc/dcmitype/StillImage" />
        <dc:title></dc:title>
      </cc:Work>
    </rdf:RDF>
  </metadata>
  <g
     inkscape:label="Layer 1"
     inkscape:groupmode="layer"
     id="layer1"
     transform="translate(0,-1033.1622)">
    <path
       inkscape:connector-curvature="0"
       style="fill:#d9ae54;fill-opacity:1;fill-rule:nonzero;stroke:none"
       d="m 19.666168,1036.1884 c 0,0 -7.054695,2.8923 -9.8648264,8.9267 -2.3124105,4.9683 2.8541794,6.137 5.3134124,5.0182 3.413563,-1.5533 6.273612,-6.3059 5.841964,-10.3757 -0.30245,-2.8439 -1.29055,-3.5692 -1.29055,-3.5692"
       id="path3935" />
    <path
       inkscape:connector-curvature="0"
       style="fill:#578a35;fill-opacity:1;fill-rule:nonzero;stroke:none"
       d="m 6.323176,1048.4978 c -0.2877636,-0.1615 -0.587278,-0.3612 -0.8926649,-0.6079 -2.1024587,-1.6957 -4.45304441,-5.6129 -4.6336311,-14.6335 0,0 2.0628191,1.2333 4.8582684,5.2151 0,0 -0.4639482,1.2626 -0.6548184,2.7014 -0.00734,0.057 -3.1213882,-5.5806 -3.1213882,-5.5806 0,0 1.3859813,3.7865 3.1683706,6.3661 -0.02204,0.787 -0.041107,2.8645 0.8706426,4.6527 0.5476385,1.0733 0.405221,1.8867 0.405221,1.8867"
       id="path3937" />
    <path
       inkscape:connector-curvature="0"
       style="fill:#6eb52b;fill-opacity:1;fill-rule:nonzero;stroke:none"
       d="m 8.1804514,1051.0598 c 0,0 -7.1310453,-2.816 -0.093965,-17.8034 0,0 1.3037584,2.0203 2.0452016,6.8271 0,0 -0.9748847,0.9279 -1.7838654,2.1333 -0.032285,0.047 -0.3259389,-6.3866 -0.3259389,-6.3866 0,0 -0.4360535,4.0081 0.020567,7.1104 -0.5916861,1.11 -2.6530348,5.1769 0.1380094,8.1192"
       id="path3939" />
    <path
       inkscape:connector-curvature="0"
       style="fill:#755735;fill-opacity:1;fill-rule:nonzero;stroke:none"
       d="m 10.2741,1049.5505 c 0,0 -0.01323,-0.06 -0.02643,-0.1938 -0.01909,-0.1336 -0.02643,-0.3157 -0.03375,-0.5535 0.0015,-0.2349 0.0059,-0.5213 0.04258,-0.8443 0.0088,-0.1629 0.03522,-0.3347 0.06753,-0.5138 0.03522,-0.1791 0.05139,-0.3715 0.105713,-0.5638 0.04845,-0.1938 0.09984,-0.395 0.152692,-0.6049 0.05579,-0.207 0.139479,-0.4141 0.209954,-0.6299 0.03817,-0.1086 0.07634,-0.2173 0.11452,-0.3274 0.04258,-0.1086 0.09543,-0.2158 0.142414,-0.3259 0.09837,-0.2173 0.198207,-0.4405 0.299515,-0.6666 0.121859,-0.2158 0.245186,-0.436 0.369984,-0.6592 0.121859,-0.2246 0.251061,-0.4478 0.405224,-0.6578 0.293639,-0.4287 0.582876,-0.8706 0.933771,-1.2656 l 0.502127,-0.6092 c 0.174714,-0.1939 0.364114,-0.3759 0.544701,-0.5624 0.180589,-0.185 0.361179,-0.367 0.537364,-0.5491 0.179119,-0.1806 0.378793,-0.3332 0.560847,-0.4992 0.3788,-0.3142 0.720886,-0.6489 1.08647,-0.9117 0.364114,-0.2687 0.7062,-0.5212 1.023332,-0.7561 0.309792,-0.2423 0.618116,-0.4287 0.888263,-0.6005 0.270149,-0.1703 0.506528,-0.3186 0.70033,-0.4419 0.387607,-0.2453 0.607833,-0.3847 0.607833,-0.3847 0,0 -0.217291,0.1439 -0.599026,0.3979 -0.192331,0.1277 -0.422841,0.2819 -0.688585,0.458 -0.265742,0.1762 -0.571128,0.37 -0.875045,0.6196 -0.309789,0.2393 -0.646005,0.5007 -1.001309,0.7752 -0.359712,0.2702 -0.692991,0.6108 -1.06151,0.9338 -0.179122,0.1674 -0.372921,0.323 -0.546171,0.5065 -0.17178,0.1836 -0.346494,0.37 -0.522676,0.5579 -0.17325,0.1894 -0.356774,0.373 -0.527086,0.5682 l -0.483036,0.6138 c -0.337687,0.3978 -0.613708,0.8412 -0.892665,1.2699 -0.148287,0.21 -0.268682,0.4317 -0.383199,0.6548 -0.117457,0.2218 -0.233447,0.439 -0.347967,0.6549 -0.09543,0.2231 -0.187929,0.4434 -0.278953,0.6592 -0.04405,0.1072 -0.0925,0.2129 -0.132143,0.3201 -0.03522,0.1086 -0.07047,0.2158 -0.10424,0.3215 -0.0646,0.2129 -0.140947,0.4155 -0.190864,0.6181 -0.04698,0.2026 -0.09103,0.3993 -0.135077,0.5873 -0.04845,0.1879 -0.05873,0.3729 -0.08956,0.5462 -0.02643,0.1747 -0.04845,0.3391 -0.05432,0.4962 -0.02787,0.3113 -0.02643,0.5829 -0.02204,0.806 0.01173,0.2217 0.02348,0.3994 0.04111,0.5095 0.01323,0.1116 0.02787,0.1777 0.02787,0.1777 z m 0,0"
       id="path3941" />
    <path
       inkscape:connector-curvature="0"
       style="fill:#685c47;fill-opacity:1;fill-rule:nonzero;stroke:none"
       d="m 13.93579,1044.9609 c 0,0 5.31488,-3.4283 8.332029,-2.9129 -0.900005,6.8154 -6.382259,9.3774 -7.245562,9.6945 l 0.01323,-0.012 c -0.13948,0.057 -0.308322,0.116 -0.507996,0.1776 -0.19821,0.06 -0.406691,0.1175 -0.622519,0.1704 -0.215824,0.053 -0.427246,0.095 -0.63573,0.1277 -0.207014,0.034 -0.389072,0.05 -0.543234,0.05 -0.318599,0 -0.587278,-0.01 -0.80604,-0.031 -0.220229,-0.02 -0.405224,-0.045 -0.556448,-0.073 -0.151222,-0.028 -2.7998549,-0.4214 -3.5735951,-3.3241 -0.1292022,-0.483 -0.2319771,-0.9954 -0.2319771,-1.5577 0,-0.602 0.096902,-1.2318 0.2921717,-1.8867 0.1952692,-0.6562 0.4654186,-1.3184 0.8075104,-1.9864 0.3420918,-0.6681 0.7429077,-1.3273 1.2024539,-1.9791 0.4610132,-0.6519 0.9440522,-1.2906 1.4975632,-1.8749 4.119766,-4.3489 9.000063,-5.0771 9.000063,-5.0771 0.720885,0.834 1.957106,3.3093 0.60049,5.9697 l -0.04551,-0.37 c 0.05139,-2.0276 -0.870646,-3.3313 -1.239162,-3.6734 0,0 -2.833624,0.4566 -6.520271,4.2813 -0.647476,0.6709 -1.225947,1.3595 -1.722195,2.076 -0.497721,0.7165 -0.894135,1.4433 -1.19218,2.1817 -0.2965763,0.7371 -0.4419285,1.4433 -0.4448632,2.1201 -0.024957,4.0273 4.1505982,3.2256 5.5145542,2.5606 4.268053,-2.0761 5.030051,-5.7421 5.030051,-5.7421 -1.642915,-0.8061 -6.402817,1.0908 -6.402817,1.0908"
       id="path3943" />
    <path
       inkscape:connector-curvature="0"
       style="fill:#685c47;fill-opacity:1;fill-rule:nonzero;stroke:none"
       d="m 15.440696,1040.3126 c 0,0.068 -0.05433,0.1233 -0.12333,0.1233 -0.06754,0 -0.121862,-0.056 -0.121862,-0.1233 0,-0.068 0.05432,-0.1234 0.121862,-0.1234 0.069,0 0.12333,0.056 0.12333,0.1234"
       id="path3945" />
    <path
       inkscape:connector-curvature="0"
       style="fill:#685c47;fill-opacity:1;fill-rule:nonzero;stroke:none"
       d="m 18.930603,1042.001 c 0,0.087 -0.07048,0.1571 -0.1571,0.1571 -0.08662,0 -0.157097,-0.07 -0.157097,-0.1571 0,-0.088 0.07047,-0.1586 0.157097,-0.1586 0.08662,0 0.1571,0.071 0.1571,0.1586"
       id="path3947" />
    <path
       inkscape:connector-curvature="0"
       style="fill:#685c47;fill-opacity:1;fill-rule:nonzero;stroke:none"
       d="m 12.927138,1046.1853 c 0,0.022 -0.01615,0.038 -0.03817,0.038 -0.02057,0 -0.03817,-0.016 -0.03817,-0.038 0,-0.02 0.01762,-0.038 0.03817,-0.038 0.02204,0 0.03817,0.018 0.03817,0.038"
       id="path3949" />
    <path
       inkscape:connector-curvature="0"
       style="fill:#685c47;fill-opacity:1;fill-rule:nonzero;stroke:none"
       d="m 14.503983,1043.3429 c 0,0.063 -0.05286,0.116 -0.11599,0.116 -0.06313,0 -0.115987,-0.053 -0.115987,-0.116 0,-0.063 0.05286,-0.116 0.115987,-0.116 0.06313,0 0.11599,0.053 0.11599,0.116"
       id="path3951" />
    <path
       inkscape:connector-curvature="0"
       style="fill:#685c47;fill-opacity:1;fill-rule:nonzero;stroke:none"
       d="m 19.509071,1039.0998 c 0,0.076 -0.06166,0.1395 -0.139476,0.1395 -0.07634,0 -0.139477,-0.063 -0.139477,-0.1395 0,-0.076 0.06313,-0.1395 0.139477,-0.1395 0.07781,0 0.139476,0.063 0.139476,0.1395"
       id="path3953" />
    <path
       inkscape:connector-curvature="0"
       style="fill:#685c47;fill-opacity:1;fill-rule:nonzero;stroke:none"
       d="m 15.771037,1046.1589 c 0,0.091 -0.07341,0.1659 -0.164437,0.1659 -0.09249,0 -0.165904,-0.075 -0.165904,-0.1659 0,-0.091 0.07341,-0.1659 0.165904,-0.1659 0.09103,0 0.164437,0.075 0.164437,0.1659"
       id="path3955" />
    <path
       inkscape:connector-curvature="0"
       style="fill:#685c47;fill-opacity:1;fill-rule:nonzero;stroke:none"
       d="m 14.349821,1047.7226 c 0,0.085 -0.06901,0.1541 -0.154159,0.1541 -0.08516,0 -0.154163,-0.069 -0.154163,-0.1541 0,-0.085 0.06901,-0.1527 0.154163,-0.1527 0.08515,0 0.154159,0.068 0.154159,0.1527"
       id="path3957" />
    <path
       inkscape:connector-curvature="0"
       style="fill:#685c47;fill-opacity:1;fill-rule:nonzero;stroke:none"
       d="m 12.04328,1046.9165 c 0,0.041 -0.03375,0.076 -0.07634,0.076 -0.04258,0 -0.07635,-0.035 -0.07635,-0.076 0,-0.043 0.03375,-0.078 0.07635,-0.078 0.04258,0 0.07634,0.035 0.07634,0.078"
       id="path3959" />
    <path
       inkscape:connector-curvature="0"
       style="fill:#685c47;fill-opacity:1;fill-rule:nonzero;stroke:none"
       d="m 19.238922,1045.1473 c 0,0.085 -0.069,0.1542 -0.154156,0.1542 -0.08515,0 -0.154163,-0.069 -0.154163,-0.1542 0,-0.084 0.06901,-0.1526 0.154163,-0.1526 0.08515,0 0.154156,0.069 0.154156,0.1526"
       id="path3961" />
    <path
       inkscape:connector-curvature="0"
       style="fill:#685c47;fill-opacity:1;fill-rule:nonzero;stroke:none"
       d="m 15.6066,1048.1131 c 0,0.045 -0.03817,0.082 -0.08368,0.082 -0.04552,0 -0.08222,-0.037 -0.08222,-0.082 0,-0.045 0.03672,-0.082 0.08222,-0.082 0.04551,0 0.08368,0.037 0.08368,0.082"
       id="path3963" />
    <path
       inkscape:connector-curvature="0"
       style="fill:#685c47;fill-opacity:1;fill-rule:nonzero;stroke:none"
       d="m 12.04328,1049.1453 c 0,0.043 -0.03375,0.076 -0.07634,0.076 -0.04258,0 -0.07635,-0.034 -0.07635,-0.076 0,-0.043 0.03375,-0.076 0.07635,-0.076 0.04258,0 0.07634,0.034 0.07634,0.076"
       id="path3965" />
    <path
       inkscape:connector-curvature="0"
       style="fill:#685c47;fill-opacity:1;fill-rule:nonzero;stroke:none"
       d="m 18.153928,1038.0956 c 0,0.075 -0.0602,0.1351 -0.133607,0.1351 -0.07488,0 -0.135078,-0.06 -0.135078,-0.1351 0,-0.075 0.0602,-0.1351 0.135078,-0.1351 0.07341,0 0.133607,0.06 0.133607,0.1351"
       id="path3967" />
    <text
       xml:space="preserve"
       style="font-style:normal;font-weight:normal;font-size:40px;line-height:125%;font-family:sans-serif;letter-spacing:0px;word-spacing:0px;fill:#000000;fill-opacity:1;stroke:none;stroke-width:1px;stroke-linecap:butt;stroke-linejoin:miter;stroke-opacity:1"
       x="28.5"
       y="1044.3622"
       id="text4108"
       sodipodi:linespacing="125%"><tspan
         sodipodi:role="line"
         id="tspan4110"
         x="28.5"
         y="1044.3622" /></text>
    <text
       y="987.05359"
       x="59.93037"
       transform="scale(0.94868757,1.0540878)"
       style="font-variant:normal;font-weight:normal;font-stretch:normal;font-size:6.16690683px;font-family:'BPG Glaho WEB Caps';-inkscape-font-specification:BPGGlahoWEBCaps;writing-mode:lr-tb;fill:#598b37;fill-opacity:1;fill-rule:nonzero;stroke:none"
       id="text96">
      <tspan
         sodipodi:role="line"
         id="tspan98"
         x="24.528759"
         y="987.05359"
         style="font-style:normal;font-variant:normal;font-weight:bold;font-stretch:normal;font-size:5.25px;font-family:'BPG Glaho WEB Caps';-inkscape-font-specification:'BPG Glaho WEB Caps Bold';text-anchor:middle;text-align:center">GEORGIAN ALMOND</tspan>
      <tspan
         sodipodi:role="line"
         x="24.528759"
         y="993.61609"
         id="tspan3884"
         style="font-style:normal;font-variant:normal;font-weight:bold;font-stretch:normal;font-size:5.25px;font-family:'BPG Glaho WEB Caps';-inkscape-font-specification:'BPG Glaho WEB Caps Bold';text-anchor:middle;text-align:center">GROWERS ASSOCIATION</tspan>
    </text>
  </g>
</svg>
