<?xml version="1.0" encoding="UTF-8" standalone="no"?>
<!-- Created with Inkscape (http://www.inkscape.org/) -->

<svg
   xmlns:dc="http://purl.org/dc/elements/1.1/"
   xmlns:cc="http://creativecommons.org/ns#"
   xmlns:rdf="http://www.w3.org/1999/02/22-rdf-syntax-ns#"
   xmlns:svg="http://www.w3.org/2000/svg"
   xmlns="http://www.w3.org/2000/svg"
   xmlns:sodipodi="http://sodipodi.sourceforge.net/DTD/sodipodi-0.dtd"
   xmlns:inkscape="http://www.inkscape.org/namespaces/inkscape"
   width="90.699997"
   height="19.200001"
   viewBox="0 0 90.699998 19.200001"
   id="svg3956"
   version="1.1"
   inkscape:version="0.91 r13725"
   sodipodi:docname="logo.svg">
  <defs
     id="defs3958">
    <clipPath
       clipPathUnits="userSpaceOnUse"
       id="clipPath16">
      <path
         d="m 0,294.799 294.799,0 L 294.799,0 0,0 0,294.799 Z"
         id="path18"
         inkscape:connector-curvature="0" />
    </clipPath>
  </defs>
  <sodipodi:namedview
     id="base"
     pagecolor="#ffffff"
     bordercolor="#666666"
     borderopacity="1.0"
     inkscape:pageopacity="0.0"
     inkscape:pageshadow="2"
     inkscape:zoom="4"
     inkscape:cx="66.558499"
     inkscape:cy="12.095605"
     inkscape:document-units="px"
     inkscape:current-layer="layer1"
     showgrid="false"
     units="px"
     inkscape:window-width="1366"
     inkscape:window-height="708"
     inkscape:window-x="0"
     inkscape:window-y="31"
     inkscape:window-maximized="1" />
  <metadata
     id="metadata3961">
    <rdf:RDF>
      <cc:Work
         rdf:about="">
        <dc:format>image/svg+xml</dc:format>
        <dc:type
           rdf:resource="http://purl.org/dc/dcmitype/StillImage" />
        <dc:title></dc:title>
      </cc:Work>
    </rdf:RDF>
  </metadata>
  <g
     inkscape:label="Layer 1"
     inkscape:groupmode="layer"
     id="layer1"
     transform="translate(0,-1033.1622)">
    <flowRoot
       xml:space="preserve"
       id="flowRoot6588"
       style="fill:black;stroke:none;stroke-opacity:1;stroke-width:1px;stroke-linejoin:miter;stroke-linecap:butt;fill-opacity:1;font-family:sans-serif;font-style:normal;font-weight:normal;font-size:40px;line-height:125%;letter-spacing:0px;word-spacing:0px"><flowRegion
         id="flowRegion6590"><rect
           id="rect6592"
           width="137"
           height="48"
           x="-6.75"
           y="-4.7999992" /></flowRegion><flowPara
         id="flowPara6594"></flowPara></flowRoot>    <path
       inkscape:connector-curvature="0"
       style="fill:#383335;fill-opacity:1;fill-rule:nonzero;stroke:none"
       d="m 6.2157869,1048.1516 c -0.2723146,-0.1552 -0.5583547,-0.3455 -0.8489697,-0.5789 -2.0045775,-1.6175 -4.2425601,-5.3478 -4.4141852,-13.9403 0,0 1.9656734,1.1739 4.6269989,4.9656 0,0 -0.4416495,1.2034 -0.6224251,2.5764 -0.00914,0.055 -2.9748227,-5.3176 -2.9748227,-5.3176 0,0 1.320361,3.6061 3.0205921,6.0638 -0.022901,0.751 -0.04118,2.7301 0.828373,4.4328 0.5217356,1.0226 0.3844387,1.7982 0.3844387,1.7982"
       id="path6151" />
    <path
       inkscape:connector-curvature="0"
       style="fill:#383335;fill-opacity:1;fill-rule:nonzero;stroke:none"
       d="m 7.9869534,1050.5911 c 0,0 -6.7940448,-2.6816 -0.089248,-16.9587 0,0 1.2402746,1.9224 1.9473666,6.5035 0,0 -0.9290613,0.8832 -1.7002241,2.0317 -0.029757,0.046 -0.3089283,-6.0847 -0.3089283,-6.0847 0,0 -0.4164709,3.8196 0.018279,6.7735 -0.5652146,1.0576 -2.5263131,4.9314 0.1327276,7.7347"
       id="path6153" />
    <path
       inkscape:connector-curvature="0"
       style="fill:#383335;fill-opacity:1;fill-rule:nonzero;stroke:none"
       d="m 9.8679543,1049.1751 c 0,0 -0.0092,-0.07 -0.025188,-0.1904 -0.015992,-0.1345 -0.022898,-0.309 -0.027473,-0.54 0.00241,-0.2285 0.00684,-0.5033 0.045754,-0.817 0.025194,-0.3131 0.093826,-0.6611 0.1739167,-1.0362 0.09152,-0.3734 0.196796,-0.7757 0.356976,-1.1858 0.128146,-0.4206 0.354691,-0.8259 0.542337,-1.263 0.247138,-0.4071 0.455376,-0.8555 0.750574,-1.2561 0.286039,-0.4101 0.565213,-0.8307 0.901599,-1.2065 l 0.485121,-0.5765 c 0.16934,-0.1849 0.352408,-0.3569 0.524026,-0.5353 0.345542,-0.352 0.688793,-0.6977 1.05721,-0.9931 0.363847,-0.2978 0.691075,-0.6132 1.043477,-0.8627 0.345542,-0.2539 0.675059,-0.4919 0.979404,-0.7142 0.601828,-0.446 1.157885,-0.7414 1.519449,-0.9812 0.370702,-0.2318 0.583516,-0.3639 0.583516,-0.3639 0,0 -0.205948,0.1394 -0.569791,0.3842 -0.354692,0.2537 -0.894738,0.5698 -1.480551,1.0366 -0.292903,0.231 -0.610981,0.4808 -0.947364,0.7439 -0.340962,0.2607 -0.654459,0.5876 -1.004574,0.8967 -0.3524,0.3025 -0.679637,0.657 -1.006864,1.0185 -0.164759,0.1808 -0.338675,0.3569 -0.496569,0.5447 l -0.455377,0.5855 c -0.318076,0.3799 -0.57666,0.8011 -0.839812,1.2105 -0.272315,0.4006 -0.459957,0.8449 -0.684211,1.2448 -0.16476,0.4284 -0.368422,0.8266 -0.475972,1.2336 -0.139586,0.3982 -0.22426,0.7829 -0.299772,1.1396 -0.0618,0.3593 -0.114414,0.6889 -0.128146,0.982 -0.02518,0.2947 -0.01829,0.5487 -0.01368,0.7574 0.01145,0.2055 0.02287,0.3751 0.04116,0.4715 0.01145,0.097 0.02749,0.1647 0.02749,0.1647 z m 0,0"
       id="path6155" />
    <path
       inkscape:connector-curvature="0"
       style="fill:#383335;fill-opacity:1;fill-rule:nonzero;stroke:none"
       d="m 13.467491,1044.7812 c 0,0 5.064074,-3.2652 7.940496,-2.7762 -0.858121,6.4947 -6.08008,8.9341 -6.903877,9.2383 l 0.01145,-0.012 c -0.130436,0.055 -0.292904,0.11 -0.482838,0.1666 -0.189932,0.062 -0.386729,0.1122 -0.592676,0.1625 -0.205949,0.053 -0.407322,0.091 -0.60641,0.1242 -0.19679,0.033 -0.370707,0.048 -0.517161,0.048 -0.302056,0 -0.558347,-0.01 -0.768877,-0.029 -0.208239,-0.022 -0.386728,-0.046 -0.528601,-0.074 -0.144168,-0.029 -2.6681909,-0.4004 -3.405031,-3.1671 -0.1235712,-0.4603 -0.2219697,-0.9477 -0.2219697,-1.483 0,-0.5741 0.093826,-1.1738 0.2791745,-1.7984 0.1876472,-0.625 0.4439397,-1.2542 0.7688774,-1.8928 0.3272344,-0.6358 0.7070924,-1.2631 1.1464514,-1.8852 0.4393594,-0.6203 0.8993154,-1.2288 1.4256324,-1.785 3.924481,-4.1442 8.574361,-4.8378 8.574361,-4.8378 0.686498,0.794 1.864986,3.1537 0.572081,5.6869 l -0.04345,-0.3526 c 0.05031,-1.9313 -0.828373,-3.1738 -1.180775,-3.4986 0,0 -2.700228,0.4348 -6.210522,4.0776 -0.617845,0.6408 -1.167044,1.295 -1.64073,1.9792 -0.473682,0.6824 -0.851256,1.3754 -1.1350103,2.0777 -0.2837505,0.7028 -0.421053,1.3753 -0.4256283,2.0188 -0.022908,3.8372 3.9542296,3.0731 5.2539996,2.4415 4.066357,-1.9796 4.791757,-5.4717 4.791757,-5.4717 -1.562926,-0.7686 -6.100684,1.0392 -6.100684,1.0392"
       id="path6157" />
    <path
       inkscape:connector-curvature="0"
       style="fill:#383335;fill-opacity:1;fill-rule:nonzero;stroke:none"
       d="m 14.902273,1040.3533 c 0,0.067 -0.05262,0.1163 -0.116704,0.1163 -0.06408,0 -0.1167,-0.055 -0.1167,-0.1163 0,-0.067 0.05262,-0.117 0.1167,-0.117 0.06407,0 0.116704,0.055 0.116704,0.117"
       id="path6159" />
    <path
       inkscape:connector-curvature="0"
       style="fill:#383335;fill-opacity:1;fill-rule:nonzero;stroke:none"
       d="m 18.227209,1041.962 c 0,0.082 -0.06634,0.1488 -0.148731,0.1488 -0.08466,0 -0.151032,-0.07 -0.151032,-0.1488 0,-0.085 0.06634,-0.1512 0.151032,-0.1512 0.08235,0 0.148731,0.07 0.148731,0.1512"
       id="path6161" />
    <path
       inkscape:connector-curvature="0"
       style="fill:#383335;fill-opacity:1;fill-rule:nonzero;stroke:none"
       d="m 12.508689,1045.948 c 0,0.022 -0.01598,0.038 -0.03664,0.038 -0.02065,0 -0.03664,-0.017 -0.03664,-0.038 0,-0.022 0.01598,-0.038 0.03664,-0.038 0.02065,0 0.03664,0.017 0.03664,0.038"
       id="path6163" />
    <path
       inkscape:connector-curvature="0"
       style="fill:#383335;fill-opacity:1;fill-rule:nonzero;stroke:none"
       d="m 14.009831,1043.2411 c 0,0.062 -0.05031,0.1075 -0.10984,0.1075 -0.0618,0 -0.109839,-0.051 -0.109839,-0.1075 0,-0.065 0.048,-0.1099 0.109839,-0.1099 0.05949,0 0.10984,0.05 0.10984,0.1099"
       id="path6165" />
    <path
       inkscape:connector-curvature="0"
       style="fill:#383335;fill-opacity:1;fill-rule:nonzero;stroke:none"
       d="m 18.778698,1039.1977 c 0,0.076 -0.05949,0.1329 -0.13272,0.1329 -0.07321,0 -0.13272,-0.062 -0.13272,-0.1329 0,-0.077 0.05949,-0.133 0.13272,-0.133 0.07322,0 0.13272,0.062 0.13272,0.133"
       id="path6167" />
    <path
       inkscape:connector-curvature="0"
       style="fill:#383335;fill-opacity:1;fill-rule:nonzero;stroke:none"
       d="m 15.218068,1045.9234 c 0,0.091 -0.07096,0.1576 -0.157901,0.1576 -0.08696,0 -0.157894,-0.075 -0.157894,-0.1576 0,-0.09 0.07096,-0.1585 0.157894,-0.1585 0.08697,0 0.157901,0.074 0.157901,0.1585"
       id="path6169" />
    <path
       inkscape:connector-curvature="0"
       style="fill:#383335;fill-opacity:1;fill-rule:nonzero;stroke:none"
       d="m 13.863378,1047.4126 c 0,0.084 -0.06634,0.1466 -0.146454,0.1466 -0.08012,0 -0.146452,-0.07 -0.146452,-0.1466 0,-0.082 0.06634,-0.1465 0.146452,-0.1465 0.08011,0 0.146454,0.07 0.146454,0.1465"
       id="path6171" />
    <path
       inkscape:connector-curvature="0"
       style="fill:#383335;fill-opacity:1;fill-rule:nonzero;stroke:none"
       d="m 11.666585,1046.6441 c 0,0.043 -0.03202,0.076 -0.07321,0.076 -0.04116,0 -0.07323,-0.033 -0.07323,-0.076 0,-0.043 0.03202,-0.077 0.07323,-0.077 0.04117,0 0.07321,0.033 0.07321,0.077"
       id="path6173" />
    <path
       inkscape:connector-curvature="0"
       style="fill:#383335;fill-opacity:1;fill-rule:nonzero;stroke:none"
       d="m 18.520119,1044.9597 c 0,0.081 -0.06409,0.1465 -0.146454,0.1465 -0.08012,0 -0.146456,-0.07 -0.146456,-0.1465 0,-0.083 0.06634,-0.1466 0.146456,-0.1466 0.08236,0 0.146454,0.07 0.146454,0.1466"
       id="path6175" />
    <path
       inkscape:connector-curvature="0"
       style="fill:#383335;fill-opacity:1;fill-rule:nonzero;stroke:none"
       d="m 15.060167,1047.7854 c 0,0.043 -0.03433,0.082 -0.08011,0.082 -0.04347,0 -0.07781,-0.038 -0.07781,-0.082 0,-0.046 0.03433,-0.082 0.07781,-0.082 0.04578,0 0.08011,0.038 0.08011,0.082"
       id="path6177" />
    <path
       inkscape:connector-curvature="0"
       style="fill:#383335;fill-opacity:1;fill-rule:nonzero;stroke:none"
       d="m 11.666585,1048.7673 c 0,0.043 -0.03202,0.077 -0.07321,0.077 -0.04116,0 -0.07323,-0.034 -0.07323,-0.077 0,-0.043 0.03202,-0.077 0.07323,-0.077 0.04117,0 0.07321,0.034 0.07321,0.077"
       id="path6179" />
    <path
       inkscape:connector-curvature="0"
       style="fill:#383335;fill-opacity:1;fill-rule:nonzero;stroke:none"
       d="m 17.488085,1038.2412 c 0,0.074 -0.0572,0.1281 -0.128139,0.1281 -0.07097,0 -0.128151,-0.06 -0.128151,-0.1281 0,-0.075 0.0572,-0.1283 0.128151,-0.1283 0.07096,0 0.128139,0.06 0.128139,0.1283"
       id="path6181" />
    <path
       inkscape:connector-curvature="0"
       style="fill:#383335;fill-opacity:1;fill-rule:nonzero;stroke:none"
       d="m 27.598144,1040.2343 0,-0.5567 1.811525,0 0,1.7627 c -0.278325,0.2442 -0.566413,0.4346 -0.859375,0.5567 -0.29785,0.122 -0.600588,0.1855 -0.913088,0.1855 -0.419925,0 -0.7959,-0.098 -1.142575,-0.2978 -0.3418,-0.2002 -0.600587,-0.4932 -0.776375,-0.8692 -0.175775,-0.3759 -0.263662,-0.8007 -0.263662,-1.2646 0,-0.4639 0.08788,-0.8936 0.263662,-1.2939 0.1709,-0.4004 0.424813,-0.6983 0.747075,-0.8936 0.32715,-0.1953 0.703125,-0.293 1.132813,-0.293 0.307612,0 0.585937,0.059 0.834962,0.1709 0.249025,0.1075 0.444338,0.2637 0.585938,0.4639 0.146487,0.1953 0.2539,0.4541 0.32715,0.7764 l -0.5127,0.1562 c -0.0635,-0.2441 -0.1416,-0.4346 -0.23925,-0.5713 -0.09275,-0.1367 -0.2295,-0.249 -0.405275,-0.332 -0.180663,-0.083 -0.375975,-0.1221 -0.590825,-0.1221 -0.258788,0 -0.4834,0.044 -0.66895,0.127 -0.190425,0.088 -0.341788,0.205 -0.458975,0.3466 -0.11225,0.1417 -0.205088,0.2979 -0.268563,0.4688 -0.107375,0.293 -0.161125,0.6152 -0.161125,0.957 0,0.42 0.0635,0.7764 0.195313,1.0645 0.131837,0.2832 0.322262,0.4931 0.571287,0.6347 0.2539,0.1368 0.517575,0.2051 0.800775,0.2051 0.24415,0 0.4834,-0.054 0.717775,-0.1562 0.234375,-0.1074 0.410163,-0.2149 0.52735,-0.3369 l 0,-0.8838 z m 0,0"
       id="path6257" />
    <path
       inkscape:connector-curvature="0"
       style="fill:#383335;fill-opacity:1;fill-rule:nonzero;stroke:none"
       d="m 30.254394,1042.0946 0,-4.7461 3.090825,0 0,0.5616 -2.524413,0 0,1.4501 2.363275,0 0,0.5616 -2.363275,0 0,1.6162 2.622063,0 0,0.5566 z m 0,0"
       id="path6259" />
    <path
       inkscape:connector-curvature="0"
       style="fill:#383335;fill-opacity:1;fill-rule:nonzero;stroke:none"
       d="m 34.634281,1039.7948 c 0,0.5713 0.1416,1.0205 0.415038,1.3526 0.278313,0.3271 0.625,0.4931 1.044925,0.4931 0.4248,0 0.776362,-0.166 1.0498,-0.498 0.278325,-0.3321 0.415038,-0.8057 0.415038,-1.416 0,-0.3858 -0.05863,-0.7276 -0.180663,-1.0108 -0.11225,-0.293 -0.288087,-0.5127 -0.5127,-0.6738 -0.2246,-0.1563 -0.4834,-0.2393 -0.761713,-0.2393 -0.400387,0 -0.747075,0.1563 -1.035162,0.459 -0.288088,0.3076 -0.434563,0.8203 -0.434563,1.5332 m -0.581062,-0.01 c 0,-0.791 0.190437,-1.4062 0.571287,-1.8506 0.380863,-0.4492 0.874025,-0.6689 1.474613,-0.6689 0.395512,0 0.75195,0.1025 1.069337,0.3125 0.3125,0.2099 0.556638,0.5029 0.722663,0.8789 0.166012,0.3711 0.249012,0.7959 0.249012,1.2695 0,0.4834 -0.08788,0.9131 -0.263662,1.294 -0.175788,0.3808 -0.419925,0.6689 -0.742188,0.8642 -0.322275,0.1953 -0.66895,0.293 -1.040037,0.293 -0.4004,0 -0.756838,-0.1074 -1.074225,-0.3223 -0.317388,-0.2148 -0.556638,-0.5126 -0.72265,-0.8886 -0.161138,-0.3711 -0.24415,-0.7666 -0.24415,-1.1816"
       id="path6261" />
    <path
       inkscape:connector-curvature="0"
       style="fill:#383335;fill-opacity:1;fill-rule:nonzero;stroke:none"
       d="m 39.443844,1039.4433 1.215825,0 c 0.258788,0 0.458987,-0.029 0.605463,-0.088 0.146487,-0.059 0.2588,-0.1563 0.332037,-0.2881 0.07813,-0.127 0.11225,-0.2686 0.11225,-0.4248 0,-0.2246 -0.07325,-0.4102 -0.219725,-0.5518 -0.146487,-0.1465 -0.375975,-0.2197 -0.693362,-0.2197 l -1.352538,0 z m -0.5664,2.6513 0,-4.7461 1.894525,0 c 0.380863,0 0.673838,0.044 0.86915,0.127 0.200188,0.083 0.356438,0.2344 0.473625,0.4541 0.122125,0.2148 0.180663,0.4541 0.180663,0.7129 0,0.3369 -0.09763,0.6201 -0.292963,0.8545 -0.2002,0.2295 -0.502937,0.3759 -0.913087,0.4394 0.151362,0.078 0.263674,0.1563 0.341799,0.2344 0.166013,0.1709 0.322263,0.3809 0.46875,0.6348 l 0.747063,1.289 -0.712887,0 -0.5664,-0.9863 c -0.166025,-0.2832 -0.302738,-0.5029 -0.410163,-0.6543 -0.107375,-0.1514 -0.2002,-0.2539 -0.2832,-0.3174 -0.08788,-0.059 -0.1709,-0.1025 -0.258788,-0.1269 -0.0635,-0.015 -0.1709,-0.02 -0.317387,-0.02 l -0.6543,0 0,2.1045 z m 0,0"
       id="path6263" />
    <path
       inkscape:connector-curvature="0"
       style="fill:#383335;fill-opacity:1;fill-rule:nonzero;stroke:none"
       d="m 45.181156,1040.2343 0,-0.5567 1.811526,0 0,1.7627 c -0.278326,0.2442 -0.566413,0.4346 -0.864263,0.5567 -0.292975,0.122 -0.5957,0.1855 -0.9082,0.1855 -0.419925,0 -0.800788,-0.098 -1.142587,-0.2978 -0.341788,-0.2002 -0.600575,-0.4932 -0.776363,-0.8692 -0.175775,-0.3759 -0.263675,-0.8007 -0.263675,-1.2646 0,-0.4639 0.08788,-0.8936 0.258788,-1.2939 0.175787,-0.4004 0.424812,-0.6983 0.751962,-0.8936 0.32715,-0.1953 0.703125,-0.293 1.127925,-0.293 0.3125,0 0.590825,0.059 0.83985,0.1709 0.249013,0.1075 0.444325,0.2637 0.585938,0.4639 0.141599,0.1953 0.249012,0.4541 0.322262,0.7764 l -0.507812,0.1562 c -0.0635,-0.2441 -0.141601,-0.4346 -0.239263,-0.5713 -0.09275,-0.1367 -0.229487,-0.249 -0.41015,-0.332 -0.175787,-0.083 -0.3711,-0.1221 -0.585938,-0.1221 -0.258787,0 -0.483399,0.044 -0.668949,0.127 -0.190426,0.088 -0.3418,0.205 -0.458988,0.3466 -0.117125,0.1417 -0.205075,0.2979 -0.26855,0.4688 -0.107375,0.293 -0.166013,0.6152 -0.166013,0.957 0,0.42 0.06837,0.7764 0.200188,1.0645 0.131838,0.2832 0.322275,0.4931 0.571288,0.6347 0.249025,0.1368 0.517587,0.2051 0.800787,0.2051 0.244138,0 0.4834,-0.054 0.717775,-0.1562 0.234375,-0.1074 0.405275,-0.2149 0.527338,-0.3369 l 0,-0.8838 z m 0,0"
       id="path6265" />
    <path
       inkscape:connector-curvature="0"
       style="fill:#383335;fill-opacity:1;fill-rule:nonzero;stroke:none"
       d="m 47.920407,1037.3485 0.566412,0 0,4.7461 -0.566412,0 z m 0,0"
       id="path6267" />
    <path
       inkscape:connector-curvature="0"
       style="fill:#383335;fill-opacity:1;fill-rule:nonzero;stroke:none"
       d="m 50.249507,1040.1464 1.445312,0 -0.444325,-1.3135 c -0.136725,-0.4004 -0.239263,-0.7275 -0.302737,-0.9863 -0.05375,0.3027 -0.131838,0.6054 -0.2295,0.9082 z m -1.235351,1.9531 1.640625,-4.751 0.610351,0 1.748049,4.751 -0.644525,0 -0.49805,-1.4404 -1.787112,0 -0.46875,1.4404 z m 0,0"
       id="path6269" />
    <path
       inkscape:connector-curvature="0"
       style="fill:#383335;fill-opacity:1;fill-rule:nonzero;stroke:none"
       d="m 53.457519,1042.0946 0,-4.7461 0.58105,0 2.2461,3.7305 0,-3.7305 0.541987,0 0,4.7461 -0.58105,0 -2.241212,-3.7304 0,3.7304 z m 0,0"
       id="path6271" />
    <path
       inkscape:connector-curvature="0"
       style="fill:#383335;fill-opacity:1;fill-rule:nonzero;stroke:none"
       d="m 60.581544,1040.1464 1.450187,0 -0.449212,-1.3135 c -0.131838,-0.4004 -0.234375,-0.7275 -0.29785,-0.9863 -0.05862,0.3027 -0.136725,0.6054 -0.234375,0.9082 z m -1.230475,1.9531 1.640625,-4.751 0.605475,0 1.752925,4.751 -0.644525,0 -0.49805,-1.4404 -1.787113,0 -0.46875,1.4404 z m 0,0"
       id="path6273" />
    <path
       inkscape:connector-curvature="0"
       style="fill:#383335;fill-opacity:1;fill-rule:nonzero;stroke:none"
       d="m 63.774906,1042.0946 0,-4.7461 0.566401,0 0,4.1895 2.104487,0 0,0.5566 z m 0,0"
       id="path6275" />
    <path
       inkscape:connector-curvature="0"
       style="fill:#383335;fill-opacity:1;fill-rule:nonzero;stroke:none"
       d="m 67.104981,1042.0946 0,-4.7461 0.849613,0 1.010738,3.3643 c 0.09275,0.3125 0.161137,0.542 0.205075,0.6982 0.04888,-0.1709 0.122125,-0.4248 0.2295,-0.7568 l 1.0205,-3.3057 0.761724,0 0,4.7461 -0.546875,0 0,-3.9746 -1.240237,3.9746 -0.5127,0 -1.230463,-4.0381 0,4.0381 z m 0,0"
       id="path6277" />
    <path
       inkscape:connector-curvature="0"
       style="fill:#383335;fill-opacity:1;fill-rule:nonzero;stroke:none"
       d="m 72.505369,1039.7948 c 0,0.5713 0.136725,1.0205 0.415038,1.3526 0.278324,0.3271 0.625,0.4931 1.044925,0.4931 0.4248,0 0.776362,-0.166 1.0498,-0.498 0.273437,-0.3321 0.410162,-0.8057 0.410162,-1.416 0,-0.3858 -0.05862,-0.7276 -0.175787,-1.0108 -0.117126,-0.293 -0.288088,-0.5127 -0.512688,-0.6738 -0.2295,-0.1563 -0.4834,-0.2393 -0.7666,-0.2393 -0.395512,0 -0.742187,0.1563 -1.030275,0.459 -0.288087,0.3076 -0.434575,0.8203 -0.434575,1.5332 m -0.58105,-0.01 c 0,-0.791 0.190425,-1.4062 0.571288,-1.8506 0.380862,-0.4492 0.869137,-0.6689 1.474612,-0.6689 0.3955,0 0.75195,0.1025 1.06445,0.3125 0.317375,0.2099 0.561525,0.5029 0.727538,0.8789 0.166012,0.3711 0.249025,0.7959 0.249025,1.2695 0,0.4834 -0.08788,0.9131 -0.263675,1.294 -0.175775,0.3808 -0.4248,0.6689 -0.742188,0.8642 -0.322262,0.1953 -0.66895,0.293 -1.040037,0.293 -0.400388,0 -0.761725,-0.1074 -1.0791,-0.3223 -0.317388,-0.2148 -0.556638,-0.5127 -0.717775,-0.8886 -0.161138,-0.3711 -0.244138,-0.7666 -0.244138,-1.1817"
       id="path6279" />
    <path
       inkscape:connector-curvature="0"
       style="fill:#383335;fill-opacity:1;fill-rule:nonzero;stroke:none"
       d="m 76.733882,1042.0946 0,-4.7461 0.581062,0 2.241213,3.7305 0,-3.7305 0.541987,0 0,4.7461 -0.58105,0 -2.241212,-3.7304 0,3.7304 z m 0,0"
       id="path6281" />
    <path
       inkscape:connector-curvature="0"
       style="fill:#383335;fill-opacity:1;fill-rule:nonzero;stroke:none"
       d="m 81.616694,1041.538 0.913088,0 c 0.278324,0 0.502937,-0.029 0.664062,-0.088 0.15625,-0.059 0.288088,-0.1416 0.380863,-0.249 0.136712,-0.1465 0.239262,-0.3467 0.3125,-0.6006 0.07813,-0.249 0.112249,-0.5567 0.112249,-0.9131 0,-0.4981 -0.07325,-0.8789 -0.219725,-1.1475 -0.146487,-0.2636 -0.322262,-0.4443 -0.532225,-0.5371 -0.151362,-0.063 -0.395512,-0.093 -0.732425,-0.093 l -0.898437,0 z m -0.5664,0.5566 0,-4.7461 1.474612,0 c 0.332026,0 0.585938,0.02 0.756825,0.068 0.249025,0.064 0.454113,0.1758 0.629888,0.3418 0.224612,0.2099 0.390625,0.4785 0.502925,0.8105 0.11225,0.3272 0.1709,0.7032 0.1709,1.128 0,0.3613 -0.039,0.6787 -0.117125,0.957 -0.07325,0.2783 -0.1709,0.5078 -0.288088,0.6934 -0.122125,0.1806 -0.249012,0.3271 -0.390625,0.4296 -0.1416,0.1026 -0.3125,0.1856 -0.512687,0.2393 -0.195313,0.054 -0.424813,0.078 -0.6836,0.078 z m 0,0"
       id="path6283" />
    <path
       inkscape:connector-curvature="0"
       style="fill:#383335;fill-opacity:1;fill-rule:nonzero;stroke:none"
       d="m 25.158558,1047.9534 0,-0.4936 1.607089,0 0,1.5635 c -0.242573,0.2183 -0.498133,0.3858 -0.762381,0.4961 -0.259909,0.1075 -0.528476,0.1631 -0.805736,0.1631 -0.372533,0 -0.710404,-0.094 -1.017952,-0.2646 -0.303231,-0.1763 -0.532831,-0.4367 -0.68877,-0.77 -0.151603,-0.3341 -0.229577,-0.7107 -0.229577,-1.1231 0,-0.412 0.07367,-0.793 0.229577,-1.1466 0.155939,-0.3569 0.376881,-0.6211 0.667112,-0.7929 0.290226,-0.1753 0.623778,-0.2598 1.000638,-0.2598 0.27291,0 0.519837,0.059 0.745064,0.1494 0.220942,0.099 0.394198,0.236 0.519831,0.4121 0.125612,0.1741 0.22091,0.4039 0.285905,0.6905 l -0.450519,0.1362 c -0.06071,-0.2144 -0.129955,-0.3848 -0.212255,-0.5059 -0.08668,-0.1215 -0.207919,-0.2196 -0.363871,-0.2933 -0.155938,-0.082 -0.329231,-0.11 -0.524154,-0.11 -0.225264,0 -0.424514,0.044 -0.593452,0.1142 -0.164614,0.088 -0.303244,0.1822 -0.402866,0.3072 -0.103908,0.125 -0.181923,0.2647 -0.242567,0.4166 -0.09521,0.2597 -0.14296,0.544 -0.14296,0.8491 0,0.3723 0.05626,0.6875 0.173259,0.9427 0.116967,0.2517 0.285905,0.4371 0.511163,0.5631 0.220914,0.1228 0.459164,0.1831 0.706096,0.1831 0.216583,0 0.433164,-0.054 0.636769,-0.1386 0.207921,-0.099 0.363861,-0.191 0.472159,-0.3004 l 0,-0.7842 z m 0,0"
       id="path6285" />
    <path
       inkscape:connector-curvature="0"
       style="fill:#383335;fill-opacity:1;fill-rule:nonzero;stroke:none"
       d="m 28.01756,1047.2518 1.078629,0 c 0.229576,0 0.407183,-0.029 0.537117,-0.086 0.129961,-0.059 0.225261,-0.138 0.294584,-0.2567 0.06495,-0.1125 0.09958,-0.2379 0.09958,-0.3765 0,-0.1993 -0.06495,-0.363 -0.194929,-0.4884 -0.12996,-0.1299 -0.333553,-0.1948 -0.615115,-0.1948 l -1.199905,0 z m -0.502488,2.3521 0,-4.2096 1.680739,0 c 0.337873,0 0.593445,0.044 0.771048,0.1124 0.173284,0.082 0.316244,0.2085 0.420187,0.4033 0.103918,0.1909 0.160293,0.4033 0.160293,0.6313 0,0.3008 -0.0909,0.5513 -0.264236,0.7596 -0.173293,0.2019 -0.441856,0.3317 -0.805736,0.3903 0.134304,0.078 0.233925,0.1363 0.303236,0.2057 0.147287,0.1523 0.285883,0.3384 0.415838,0.5644 l 0.658433,1.1426 -0.628094,0 -0.502493,-0.8735 c -0.147276,-0.2535 -0.268554,-0.4483 -0.363863,-0.5813 -0.09521,-0.1331 -0.177609,-0.2249 -0.25559,-0.2811 -0.0737,-0.059 -0.151602,-0.096 -0.229589,-0.1118 -0.05198,-0.015 -0.147262,-0.02 -0.27723,-0.02 l -0.580455,0 0,1.8658 z m 0,0"
       id="path6287" />
    <path
       inkscape:connector-curvature="0"
       style="fill:#383335;fill-opacity:1;fill-rule:nonzero;stroke:none"
       d="m 31.695257,1047.5628 c 0,0.5088 0.125634,0.9078 0.368206,1.2008 0.246915,0.2915 0.554462,0.4372 0.927004,0.4372 0.37687,0 0.688757,-0.1457 0.931342,-0.4417 0.246932,-0.293 0.363857,-0.7148 0.363857,-1.2563 0,-0.3404 -0.05196,-0.645 -0.155933,-0.8966 -0.103895,-0.2599 -0.255575,-0.455 -0.454851,-0.5975 -0.199243,-0.1393 -0.428832,-0.2106 -0.675754,-0.2106 -0.355209,0 -0.662762,0.1363 -0.918355,0.4054 -0.255573,0.2728 -0.385516,0.7274 -0.385516,1.3593 m -0.515493,-0.01 c 0,-0.7032 0.168944,-1.2477 0.506836,-1.6417 0.337874,-0.3984 0.775375,-0.5934 1.308209,-0.5934 0.350877,0 0.667083,0.096 0.944313,0.2774 0.281583,0.1861 0.498168,0.4459 0.645451,0.7794 0.147282,0.3296 0.220926,0.7062 0.220926,1.1245 0,0.4308 -0.07794,0.8111 -0.233922,1.1495 -0.155954,0.3383 -0.372542,0.5932 -0.658439,0.7656 -0.285913,0.1728 -0.593452,0.2598 -0.922671,0.2598 -0.355204,0 -0.671431,-0.096 -0.957349,-0.2856 -0.277229,-0.191 -0.493811,-0.4557 -0.63676,-0.7867 -0.142957,-0.3296 -0.216594,-0.6812 -0.216594,-1.0488"
       id="path6289" />
    <path
       inkscape:connector-curvature="0"
       style="fill:#383335;fill-opacity:1;fill-rule:nonzero;stroke:none"
       d="m 36.113698,1049.6039 -1.004973,-4.2096 0.515492,0 0.576123,2.7579 c 0.06073,0.2915 0.112612,0.5782 0.160273,0.8667 0.09521,-0.4502 0.151624,-0.7148 0.168927,-0.7798 l 0.723434,-2.8448 0.602113,0 0.545795,2.1305 c 0.134311,0.5293 0.233932,1.0264 0.294574,1.4941 0.04769,-0.268 0.112615,-0.5752 0.186291,-0.9184 l 0.597759,-2.7062 0.502488,0 -1.039616,4.2096 -0.480833,0 -0.801392,-3.21 c -0.065,-0.2675 -0.108342,-0.4326 -0.116953,-0.4927 -0.04331,0.1948 -0.07794,0.3579 -0.112616,0.4927 l -0.805735,3.21 z m 0,0"
       id="path6291" />
    <path
       inkscape:connector-curvature="0"
       style="fill:#383335;fill-opacity:1;fill-rule:nonzero;stroke:none"
       d="m 40.462828,1049.6039 0,-4.2096 2.742028,0 0,0.4972 -2.24385,0 0,1.2865 2.100907,0 0,0.4991 -2.100907,0 0,1.4346 2.330502,0 0,0.4922 z m 0,0"
       id="path6293" />
    <path
       inkscape:connector-curvature="0"
       style="fill:#383335;fill-opacity:1;fill-rule:nonzero;stroke:none"
       d="m 44.491405,1047.2518 1.078634,0 c 0.229579,0 0.411527,-0.029 0.541466,-0.086 0.12564,-0.059 0.225251,-0.138 0.294563,-0.2567 0.065,-0.1125 0.09958,-0.2379 0.09958,-0.3765 0,-0.1993 -0.065,-0.363 -0.194933,-0.4884 -0.129946,-0.1299 -0.33786,-0.1948 -0.619453,-0.1948 l -1.199907,0 z m -0.49814,2.3521 0,-4.2096 1.680747,0 c 0.337857,0 0.593426,0.044 0.771037,0.1124 0.173295,0.082 0.316234,0.2085 0.420189,0.4033 0.103903,0.1909 0.155953,0.4033 0.155953,0.6313 0,0.3008 -0.08667,0.5513 -0.259908,0.7596 -0.173287,0.2019 -0.441842,0.3317 -0.805732,0.3903 0.129965,0.078 0.233943,0.1363 0.303245,0.2057 0.142959,0.1523 0.281565,0.3384 0.415841,0.5644 l 0.658441,1.1426 -0.632426,0 -0.502498,-0.8735 c -0.142953,-0.2535 -0.26424,-0.4483 -0.359548,-0.5813 -0.09521,-0.1331 -0.181944,-0.2249 -0.255587,-0.2811 -0.07369,-0.059 -0.151592,-0.096 -0.229585,-0.1118 -0.05625,-0.015 -0.147262,-0.02 -0.277236,-0.02 l -0.584793,0 0,1.8658 z m 0,0"
       id="path6295" />
    <path
       inkscape:connector-curvature="0"
       style="fill:#383335;fill-opacity:1;fill-rule:nonzero;stroke:none"
       d="m 47.636323,1048.2538 0.476473,-0.054 c 0.02171,0.2104 0.07367,0.3856 0.155953,0.5196 0.08225,0.1347 0.207936,0.2421 0.381189,0.3295 0.173301,0.089 0.368219,0.1211 0.580467,0.1211 0.190594,0 0.359538,-0.034 0.511149,-0.094 0.142952,-0.073 0.251254,-0.1503 0.324886,-0.26 0.0692,-0.1114 0.108342,-0.2285 0.108342,-0.363 0,-0.1299 -0.03465,-0.2461 -0.103909,-0.3476 -0.06921,-0.096 -0.181934,-0.1805 -0.342195,-0.2455 -0.103919,-0.049 -0.32924,-0.1124 -0.675754,-0.2042 -0.346554,-0.099 -0.59348,-0.1816 -0.732104,-0.2646 -0.181934,-0.1026 -0.316217,-0.2328 -0.402838,-0.3946 -0.0909,-0.1556 -0.134293,-0.3292 -0.134293,-0.5241 0,-0.2122 0.05196,-0.4118 0.164596,-0.5933 0.108349,-0.1863 0.264236,-0.3294 0.472188,-0.4235 0.212242,-0.099 0.441846,-0.1427 0.697406,-0.1427 0.281559,0 0.528491,0.059 0.745066,0.1518 0.212285,0.1 0.376877,0.2466 0.493831,0.4458 0.116963,0.1948 0.177604,0.4146 0.186275,0.6631 l -0.480821,0.044 c -0.02598,-0.2647 -0.112653,-0.4691 -0.264236,-0.603 -0.14731,-0.1387 -0.368218,-0.2036 -0.658445,-0.2036 -0.303244,0 -0.524162,0.068 -0.662782,0.1831 -0.138606,0.1258 -0.207924,0.2715 -0.207924,0.4506 0,0.1505 0.04769,0.271 0.147273,0.3726 0.09523,0.096 0.346554,0.1992 0.753743,0.2974 0.407189,0.1049 0.688767,0.1903 0.840369,0.2685 0.220936,0.1125 0.385542,0.2559 0.489501,0.4303 0.103913,0.1776 0.155934,0.3725 0.155934,0.6004 0,0.2266 -0.05627,0.4346 -0.173263,0.6338 -0.112634,0.1997 -0.27723,0.3497 -0.498162,0.464 -0.216591,0.1079 -0.45916,0.163 -0.727733,0.163 -0.346544,0 -0.632437,-0.063 -0.862026,-0.163 -0.233938,-0.1143 -0.415856,-0.2818 -0.545827,-0.5039 -0.134265,-0.2243 -0.203593,-0.4751 -0.212254,-0.7569"
       id="path6297" />
    <path
       inkscape:connector-curvature="0"
       style="fill:#383335;fill-opacity:1;fill-rule:nonzero;stroke:none"
       d="m 53.830774,1047.8768 1.286553,0 -0.398519,-1.1646 c -0.121296,-0.3564 -0.207918,-0.6479 -0.268565,-0.8759 -0.04769,0.2686 -0.116967,0.537 -0.203599,0.8062 z m -1.095933,1.7314 1.455481,-4.2139 0.541472,0 1.550812,4.2139 -0.571803,0 -0.441856,-1.2768 -1.585435,0 -0.415866,1.2768 z m 0,0"
       id="path6299" />
    <path
       inkscape:connector-curvature="0"
       style="fill:#383335;fill-opacity:1;fill-rule:nonzero;stroke:none"
       d="m 56.512175,1048.2538 0.476483,-0.054 c 0.02171,0.2104 0.07367,0.3856 0.155954,0.5196 0.08222,0.1347 0.207942,0.2421 0.381205,0.3295 0.173285,0.089 0.368209,0.1211 0.580464,0.1211 0.19061,0 0.359544,-0.034 0.51115,-0.094 0.142951,-0.073 0.251236,-0.1503 0.324877,-0.26 0.06921,-0.1114 0.108353,-0.2285 0.108353,-0.363 0,-0.1299 -0.03465,-0.2461 -0.103896,-0.3476 -0.0692,-0.096 -0.181967,-0.1805 -0.342234,-0.2455 -0.103903,-0.049 -0.329201,-0.1124 -0.675745,-0.2042 -0.346548,-0.099 -0.593474,-0.1816 -0.73208,-0.2646 -0.181958,-0.1026 -0.316234,-0.2328 -0.402866,-0.3946 -0.0909,-0.1556 -0.134272,-0.3292 -0.134272,-0.5241 0,-0.2122 0.05196,-0.4118 0.16461,-0.5933 0.108337,-0.1863 0.264226,-0.3294 0.472154,-0.4235 0.212263,-0.099 0.44185,-0.1427 0.697415,-0.1427 0.281583,0 0.528476,0.059 0.745076,0.1518 0.212266,0.1 0.37688,0.2466 0.493815,0.4458 0.116963,0.1948 0.177601,0.4146 0.186291,0.6631 l -0.48084,0.044 c -0.02598,-0.2647 -0.11264,-0.4691 -0.264236,-0.603 -0.147281,-0.1387 -0.368219,-0.2036 -0.658435,-0.2036 -0.30323,0 -0.524152,0.068 -0.662758,0.1831 -0.13863,0.1258 -0.207942,0.2715 -0.207942,0.4506 0,0.1505 0.04769,0.271 0.14729,0.3726 0.09522,0.096 0.346524,0.1992 0.753724,0.2974 0.407179,0.1049 0.688768,0.1903 0.840368,0.2685 0.220932,0.1125 0.385537,0.2559 0.489488,0.4303 0.103903,0.1776 0.155953,0.3725 0.155953,0.6004 0,0.2266 -0.05625,0.4346 -0.173267,0.6338 -0.112646,0.1997 -0.277238,0.3497 -0.498168,0.464 -0.216585,0.1079 -0.45917,0.163 -0.727725,0.163 -0.346558,0 -0.632445,-0.063 -0.862033,-0.163 -0.233924,-0.1143 -0.415856,-0.2818 -0.545819,-0.5039 -0.134273,-0.2243 -0.203585,-0.4751 -0.212238,-0.7569"
       id="path6301" />
    <path
       inkscape:connector-curvature="0"
       style="fill:#383335;fill-opacity:1;fill-rule:nonzero;stroke:none"
       d="m 60.046917,1048.2538 0.472178,-0.054 c 0.02588,0.2104 0.07794,0.3856 0.155953,0.5196 0.08225,0.1347 0.212269,0.2421 0.385528,0.3295 0.168934,0.089 0.363858,0.1211 0.580447,0.1211 0.19061,0 0.359536,-0.034 0.506838,-0.094 0.147283,-0.073 0.255566,-0.1503 0.324878,-0.26 0.0737,-0.1114 0.108342,-0.2285 0.108342,-0.363 0,-0.1299 -0.03465,-0.2461 -0.103903,-0.3476 -0.06921,-0.096 -0.181934,-0.1805 -0.337877,-0.2455 -0.103924,-0.049 -0.329229,-0.1124 -0.675783,-0.2042 -0.350873,-0.099 -0.593446,-0.1816 -0.732076,-0.2646 -0.181928,-0.1026 -0.316221,-0.2328 -0.407189,-0.3946 -0.08668,-0.1556 -0.12993,-0.3292 -0.12993,-0.5241 0,-0.2122 0.05196,-0.4118 0.160267,-0.5933 0.108352,-0.1863 0.268555,-0.3294 0.476491,-0.4235 0.207924,-0.099 0.441857,-0.1427 0.697429,-0.1427 0.281562,0 0.528478,0.059 0.74074,0.1518 0.216588,0.1 0.381185,0.2466 0.498148,0.4458 0.112646,0.1948 0.17761,0.4146 0.186281,0.6631 l -0.480835,0.044 c -0.02598,-0.2647 -0.116964,-0.4691 -0.264235,-0.603 -0.147291,-0.1387 -0.368209,-0.2036 -0.658441,-0.2036 -0.307558,0 -0.528476,0.068 -0.667106,0.1831 -0.13863,0.1258 -0.207914,0.2715 -0.207914,0.4506 0,0.1505 0.05196,0.271 0.147273,0.3726 0.09958,0.096 0.350867,0.1992 0.758066,0.2974 0.407183,0.1049 0.688763,0.1903 0.840367,0.2685 0.220938,0.1125 0.381201,0.2559 0.485174,0.4303 0.108342,0.1776 0.160263,0.3725 0.160263,0.6004 0,0.2266 -0.05624,0.4346 -0.173257,0.6338 -0.116963,0.1997 -0.28159,0.3497 -0.498178,0.464 -0.216575,0.1079 -0.45915,0.163 -0.732077,0.163 -0.342202,0 -0.628093,-0.063 -0.862025,-0.163 -0.229579,-0.1143 -0.411503,-0.2818 -0.545795,-0.5039 -0.129944,-0.2243 -0.199266,-0.4751 -0.207936,-0.7569"
       id="path6303" />
    <path
       inkscape:connector-curvature="0"
       style="fill:#383335;fill-opacity:1;fill-rule:nonzero;stroke:none"
       d="m 64.114505,1047.5628 c 0,0.5088 0.125602,0.9078 0.368187,1.2008 0.246927,0.2915 0.55449,0.4372 0.927022,0.4372 0.376848,0 0.688735,-0.1457 0.93132,-0.4417 0.246934,-0.293 0.363889,-0.7148 0.363889,-1.2563 0,-0.3404 -0.05196,-0.645 -0.155943,-0.8966 -0.103913,-0.2599 -0.255587,-0.455 -0.45484,-0.5975 -0.199276,-0.1393 -0.42885,-0.2106 -0.675786,-0.2106 -0.355187,0 -0.662755,0.1363 -0.91832,0.4054 -0.255593,0.2728 -0.385529,0.7274 -0.385529,1.3593 m -0.515481,-0.01 c 0,-0.7032 0.168924,-1.2477 0.506821,-1.6417 0.337867,-0.3984 0.775394,-0.5934 1.308199,-0.5934 0.350867,0 0.667102,0.096 0.944331,0.2774 0.281566,0.1861 0.498151,0.4459 0.645451,0.7794 0.147273,0.3296 0.220908,0.7062 0.220908,1.1245 0,0.4308 -0.07794,0.8111 -0.233932,1.1495 -0.155943,0.3383 -0.372538,0.5932 -0.658411,0.7656 -0.285902,0.1728 -0.59347,0.2598 -0.922677,0.2598 -0.355218,0 -0.671435,-0.096 -0.957331,-0.2856 -0.277236,-0.191 -0.493825,-0.4557 -0.636774,-0.7867 -0.142954,-0.3295 -0.216585,-0.6811 -0.216585,-1.0488"
       id="path6305" />
    <path
       inkscape:connector-curvature="0"
       style="fill:#383335;fill-opacity:1;fill-rule:nonzero;stroke:none"
       d="m 70.577566,1048.1278 0.498134,0.1435 c -0.103903,0.4591 -0.290216,0.8043 -0.567452,1.0485 -0.272916,0.2377 -0.606464,0.3578 -1.000663,0.3578 -0.407185,0 -0.740729,-0.096 -0.996302,-0.2773 -0.255575,-0.186 -0.450499,-0.4546 -0.584796,-0.8043 -0.134291,-0.3471 -0.199261,-0.724 -0.199261,-1.1264 0,-0.4374 0.07367,-0.8223 0.225255,-1.1475 0.151602,-0.3291 0.363858,-0.5781 0.645429,-0.7456 0.277248,-0.168 0.584788,-0.2553 0.918346,-0.2553 0.376866,0 0.697415,0.1069 0.957341,0.3247 0.255565,0.2124 0.437493,0.5151 0.541462,0.8999 l -0.493815,0.1298 c -0.0909,-0.3023 -0.2166,-0.5283 -0.385534,-0.6669 -0.164614,-0.1433 -0.376869,-0.2106 -0.632445,-0.2106 -0.290226,0 -0.532805,0.086 -0.727746,0.233 -0.194934,0.1567 -0.333557,0.3628 -0.411529,0.6225 -0.07794,0.2643 -0.121277,0.5329 -0.121277,0.8111 0,0.3582 0.04779,0.6718 0.142948,0.941 0.09088,0.2646 0.238255,0.4612 0.437509,0.5956 0.199265,0.1344 0.411526,0.1995 0.645434,0.1995 0.277236,0 0.515482,-0.097 0.714757,-0.2687 0.190601,-0.1812 0.324887,-0.4503 0.394205,-0.8043"
       id="path6307" />
    <path
       inkscape:connector-curvature="0"
       style="fill:#383335;fill-opacity:1;fill-rule:nonzero;stroke:none"
       d="m 71.781786,1045.3943 0.498179,0 0,4.2096 -0.498179,0 z m 0,0"
       id="path6309" />
    <path
       inkscape:connector-curvature="0"
       style="fill:#383335;fill-opacity:1;fill-rule:nonzero;stroke:none"
       d="m 73.843743,1047.8768 1.286538,0 -0.394199,-1.1646 c -0.121293,-0.3564 -0.212244,-0.6479 -0.268565,-0.8759 -0.05196,0.2686 -0.116963,0.537 -0.207918,0.8062 z m -1.091625,1.7314 1.455482,-4.2139 0.541476,0 1.550792,4.2139 -0.571803,0 -0.441851,-1.2768 -1.585435,0 -0.41586,1.2768 z m 0,0"
       id="path6311" />
    <path
       inkscape:connector-curvature="0"
       style="fill:#383335;fill-opacity:1;fill-rule:nonzero;stroke:none"
       d="m 77.664397,1049.6039 0,-3.7124 -1.24758,0 0,-0.4972 3.00628,0 0,0.4972 -1.256224,0 0,3.7124 z m 0,0"
       id="path6313" />
    <path
       inkscape:connector-curvature="0"
       style="fill:#383335;fill-opacity:1;fill-rule:nonzero;stroke:none"
       d="m 80.020891,1045.3943 0.502501,0 0,4.2096 -0.502501,0 z m 0,0"
       id="path6315" />
    <path
       inkscape:connector-curvature="0"
       style="fill:#383335;fill-opacity:1;fill-rule:nonzero;stroke:none"
       d="m 81.77095,1047.5628 c 0,0.5088 0.125606,0.9078 0.368199,1.2008 0.2469,0.2915 0.554472,0.4372 0.92701,0.4372 0.376852,0 0.688739,-0.1457 0.931338,-0.4417 0.246898,-0.293 0.368191,-0.7148 0.368191,-1.2563 0,-0.3404 -0.05196,-0.645 -0.160263,-0.8966 -0.09959,-0.2599 -0.255575,-0.455 -0.454851,-0.5975 -0.199271,-0.1393 -0.42886,-0.2106 -0.675754,-0.2106 -0.355219,0 -0.662782,0.1363 -0.918361,0.4054 -0.255566,0.2728 -0.385509,0.7274 -0.385509,1.3593 m -0.515491,-0.01 c 0,-0.7032 0.168933,-1.2477 0.5068,-1.6417 0.337892,-0.3984 0.775418,-0.5934 1.30822,-0.5934 0.350895,0 0.667095,0.096 0.948655,0.2774 0.27726,0.1861 0.493844,0.4459 0.641127,0.7794 0.147271,0.3296 0.220908,0.7062 0.220908,1.1245 0,0.4308 -0.07794,0.8111 -0.233904,1.1495 -0.155944,0.3383 -0.372538,0.5932 -0.658427,0.7656 -0.285925,0.1728 -0.593478,0.2598 -0.922679,0.2598 -0.355229,0 -0.671435,-0.096 -0.953017,-0.2856 -0.281561,-0.191 -0.493816,-0.4557 -0.641099,-0.7867 -0.142953,-0.3295 -0.216594,-0.6811 -0.216594,-1.0488"
       id="path6317" />
    <path
       inkscape:connector-curvature="0"
       style="fill:#383335;fill-opacity:1;fill-rule:nonzero;stroke:none"
       d="m 85.522293,1049.6039 0,-4.2096 0.515475,0 1.992642,3.3092 0,-3.3092 0.480821,0 0,4.2096 -0.515482,0 -1.992628,-3.3081 0,3.3081 z m 0,0"
       id="path6319" />
  </g>
</svg>
