<?xml version="1.0" encoding="UTF-8" standalone="no"?>
<!-- Created with Inkscape (http://www.inkscape.org/) -->

<svg
   xmlns:dc="http://purl.org/dc/elements/1.1/"
   xmlns:cc="http://creativecommons.org/ns#"
   xmlns:rdf="http://www.w3.org/1999/02/22-rdf-syntax-ns#"
   xmlns:svg="http://www.w3.org/2000/svg"
   xmlns="http://www.w3.org/2000/svg"
   xmlns:sodipodi="http://sodipodi.sourceforge.net/DTD/sodipodi-0.dtd"
   xmlns:inkscape="http://www.inkscape.org/namespaces/inkscape"
   width="321.37796"
   height="68.031494"
   viewBox="0 0 321.37794 68.031498"
   id="svg4258"
   version="1.1"
   inkscape:version="0.91 r13725"
   sodipodi:docname="logo.svg"
   inkscape:export-filename="/home/machine/Desktop/text97.png"
   inkscape:export-xdpi="90"
   inkscape:export-ydpi="90">
  <defs
     id="defs4260" />
  <sodipodi:namedview
     id="base"
     pagecolor="#ffffff"
     bordercolor="#666666"
     borderopacity="1.0"
     inkscape:pageopacity="0.0"
     inkscape:pageshadow="2"
     inkscape:zoom="2.15"
     inkscape:cx="182.36618"
     inkscape:cy="60"
     inkscape:document-units="px"
     inkscape:current-layer="layer1"
     showgrid="false"
     units="px"
     inkscape:window-width="1366"
     inkscape:window-height="708"
     inkscape:window-x="0"
     inkscape:window-y="31"
     inkscape:window-maximized="1" />
  <metadata
     id="metadata4263">
    <rdf:RDF>
      <cc:Work
         rdf:about="">
        <dc:format>image/svg+xml</dc:format>
        <dc:type
           rdf:resource="http://purl.org/dc/dcmitype/StillImage" />
        <dc:title></dc:title>
      </cc:Work>
    </rdf:RDF>
  </metadata>
  <g
     inkscape:label="Layer 1"
     inkscape:groupmode="layer"
     id="layer1"
     transform="translate(0,-984.33071)">
    <path
       inkscape:connector-curvature="0"
       style="fill:#d9ae54;fill-opacity:1;fill-rule:nonzero;stroke:none"
       d="m 69.141429,995.55792 c 0,0 -24.922174,10.15248 -34.849529,31.33408 -8.169077,17.4395 10.082964,21.5418 18.770716,17.6146 12.059099,-5.4522 22.162804,-22.1347 20.637956,-36.4203 -1.068468,-9.9825 -4.559143,-12.52838 -4.559143,-12.52838"
       id="path3935"
       inkscape:export-xdpi="90"
       inkscape:export-ydpi="90" />
    <path
       inkscape:connector-curvature="0"
       style="fill:#578a35;fill-opacity:1;fill-rule:nonzero;stroke:none"
       d="m 22.004557,1038.7657 c -1.016581,-0.5668 -2.074681,-1.2678 -3.153522,-2.1337 -7.427364,-5.9522 -15.7312926,-19.7022 -16.3692526,-51.36589 0,0 7.2873311,4.32915 17.1628326,18.30579 0,0 -1.638992,4.4319 -2.313283,9.4823 -0.02579,0.2001 -11.0269433,-19.58868 -11.0269433,-19.58868 0,0 4.8962613,13.29108 11.1929203,22.34588 -0.07785,2.7626 -0.14523,10.0549 3.075721,16.3318 1.934647,3.7674 1.431527,6.6225 1.431527,6.6225"
       id="path3937"
       inkscape:export-xdpi="90"
       inkscape:export-ydpi="90" />
    <path
       inkscape:connector-curvature="0"
       style="fill:#6eb52b;fill-opacity:1;fill-rule:nonzero;stroke:none"
       d="m 28.565759,1047.7589 c 0,0 -25.1918767,-9.8847 -0.331932,-62.49279 0,0 4.605801,7.09153 7.225101,23.96419 0,0 -3.443977,3.257 -6.301865,7.4882 -0.114099,0.1651 -1.151447,-22.41795 -1.151447,-22.41795 0,0 -1.540456,14.06905 0.07267,24.95875 -2.090248,3.8962 -9.372387,18.1717 0.487555,28.4996"
       id="path3939"
       inkscape:export-xdpi="90"
       inkscape:export-ydpi="90" />
    <path
       inkscape:connector-curvature="0"
       style="fill:#755735;fill-opacity:1;fill-rule:nonzero;stroke:none"
       d="m 35.962008,1042.4609 c 0,0 -0.04673,-0.2106 -0.09331,-0.6803 -0.06737,-0.4688 -0.09331,-1.1082 -0.11926,-1.9427 0.0056,-0.8246 0.02078,-1.8299 0.150421,-2.9637 0.0311,-0.5718 0.12442,-1.175 0.23856,-1.8036 0.124421,-0.6286 0.18154,-1.304 0.373457,-1.9789 0.171148,-0.6803 0.352701,-1.3867 0.539415,-2.1234 0.197078,-0.7266 0.49273,-1.4535 0.741697,-2.2111 0.134881,-0.381 0.269694,-0.7626 0.404575,-1.1491 0.15042,-0.3813 0.337121,-0.7576 0.503108,-1.1439 0.347498,-0.7629 0.700199,-1.5463 1.058089,-2.34 0.430492,-0.7575 0.866173,-1.5305 1.307042,-2.3139 0.430492,-0.7883 0.886928,-1.5718 1.431547,-2.309 1.037333,-1.5047 2.059129,-3.056 3.29873,-4.4425 l 1.773869,-2.1382 c 0.617206,-0.6807 1.286301,-1.3196 1.924263,-1.9742 0.637975,-0.6494 1.27595,-1.2882 1.898359,-1.9275 0.632773,-0.6339 1.338161,-1.1695 1.981297,-1.7522 1.33819,-1.1029 2.546686,-2.2776 3.838189,-3.2003 1.286314,-0.9431 2.494782,-1.8293 3.61511,-2.6538 1.094425,-0.8507 2.183635,-1.50503 3.137989,-2.10788 0.954369,-0.59786 1.789422,-1.11837 2.474069,-1.55125 1.369308,-0.861 2.147284,-1.3504 2.147284,-1.3504 0,0 -0.767626,0.50524 -2.116165,1.39671 -0.679486,0.44835 -1.493812,0.98952 -2.432586,1.60774 -0.938788,0.61848 -2.017634,1.29878 -3.09129,2.17488 -1.094369,0.84 -2.282138,1.7576 -3.537319,2.7211 -1.270748,0.9484 -2.448125,2.1439 -3.750006,3.2777 -0.632773,0.5875 -1.31742,1.1338 -1.929451,1.7779 -0.606856,0.6444 -1.224062,1.2988 -1.846458,1.9583 -0.612044,0.6649 -1.260384,1.3094 -1.862052,1.9945 l -1.706414,2.1545 c -1.192958,1.3963 -2.168054,2.9529 -3.153528,4.4575 -0.523848,0.7372 -0.949179,1.5154 -1.353726,2.2985 -0.41494,0.7786 -0.824705,1.541 -1.229266,2.2989 -0.33712,0.7831 -0.663891,1.5563 -0.98546,2.3139 -0.155608,0.3763 -0.326771,0.7473 -0.466827,1.1236 -0.124421,0.3811 -0.248939,0.7574 -0.36824,1.1284 -0.228211,0.7474 -0.497933,1.4584 -0.674269,2.1697 -0.165973,0.7112 -0.321582,1.4015 -0.477192,2.0615 -0.171161,0.6595 -0.207469,1.309 -0.316379,1.9171 -0.09331,0.6134 -0.171161,1.1904 -0.191903,1.7418 -0.09848,1.0929 -0.09331,2.046 -0.07783,2.8293 0.04143,0.7782 0.08299,1.4019 0.145231,1.7885 0.04673,0.3916 0.09848,0.6236 0.09848,0.6236 z m 0,0"
       id="path3941"
       inkscape:export-xdpi="90"
       inkscape:export-ydpi="90" />
    <path
       inkscape:connector-curvature="0"
       style="fill:#685c47;fill-opacity:1;fill-rule:nonzero;stroke:none"
       d="m 48.897684,1026.3508 c 0,0 18.775919,-12.034 29.434619,-10.2248 -3.179472,23.9231 -22.546665,32.9162 -25.596458,34.0292 l 0.04673,-0.043 c -0.492744,0.2001 -1.089209,0.4072 -1.794597,0.6234 -0.700214,0.2106 -1.436721,0.4126 -2.199173,0.5982 -0.762452,0.1861 -1.509337,0.3335 -2.245857,0.4483 -0.73132,0.1188 -1.37447,0.1753 -1.919088,0.1753 -1.125517,0 -2.074669,-0.035 -2.847498,-0.1085 -0.778004,-0.071 -1.431532,-0.158 -1.965758,-0.2562 -0.534227,-0.099 -9.891074,-1.4792 -12.624459,-11.6682 -0.456436,-1.6955 -0.819515,-3.4941 -0.819515,-5.4677 0,-2.1131 0.342323,-4.3239 1.032159,-6.6227 0.689822,-2.3033 1.644191,-4.6277 2.852701,-6.9726 1.208509,-2.3451 2.624461,-4.659 4.24791,-6.9469 1.628624,-2.2884 3.335053,-4.5302 5.290448,-6.5813 14.553924,-15.26521 31.794589,-17.82132 31.794589,-17.82132 2.546657,2.92756 6.913855,11.61632 2.121354,20.95452 l -0.160742,-1.2987 c 0.181581,-7.1171 -3.075751,-11.69333 -4.37759,-12.89423 0,0 -10.010375,1.60285 -23.034206,15.02803 -2.287341,2.355 -4.330919,4.7721 -6.084019,7.2871 -1.758303,2.5151 -3.158716,5.0662 -4.211616,7.6581 -1.047712,2.5874 -1.561198,5.0663 -1.571575,7.442 -0.08816,14.1364 14.662847,11.3223 19.481306,8.9881 15.077758,-7.2876 17.769675,-20.1557 17.769675,-20.1557 -5.803919,-2.8296 -22.619253,3.8289 -22.619253,3.8289"
       id="path3943"
       inkscape:export-xdpi="90"
       inkscape:export-ydpi="90" />
    <path
       inkscape:connector-curvature="0"
       style="fill:#685c47;fill-opacity:1;fill-rule:nonzero;stroke:none"
       d="m 54.214077,1010.0345 c 0,0.2387 -0.191931,0.4328 -0.435695,0.4328 -0.238603,0 -0.430505,-0.1966 -0.430505,-0.4328 0,-0.2386 0.191902,-0.4332 0.430505,-0.4332 0.243764,0 0.435695,0.1965 0.435695,0.4332"
       id="path3945"
       inkscape:export-xdpi="90"
       inkscape:export-ydpi="90" />
    <path
       inkscape:connector-curvature="0"
       style="fill:#685c47;fill-opacity:1;fill-rule:nonzero;stroke:none"
       d="m 66.542884,1015.9609 c 0,0.3055 -0.249051,0.5515 -0.554983,0.5515 -0.305931,0 -0.554995,-0.2456 -0.554995,-0.5515 0,-0.3088 0.249064,-0.5565 0.554995,-0.5565 0.305932,0 0.554983,0.2491 0.554983,0.5565"
       id="path3947"
       inkscape:export-xdpi="90"
       inkscape:export-ydpi="90" />
    <path
       inkscape:connector-curvature="0"
       style="fill:#685c47;fill-opacity:1;fill-rule:nonzero;stroke:none"
       d="m 45.334407,1030.6485 c 0,0.078 -0.05705,0.1336 -0.134882,0.1336 -0.07267,0 -0.134881,-0.056 -0.134881,-0.1336 0,-0.071 0.06221,-0.1335 0.134881,-0.1335 0.07784,0 0.134882,0.063 0.134882,0.1335"
       id="path3949"
       inkscape:export-xdpi="90"
       inkscape:export-ydpi="90" />
    <path
       inkscape:connector-curvature="0"
       style="fill:#685c47;fill-opacity:1;fill-rule:nonzero;stroke:none"
       d="m 50.90494,1020.6712 c 0,0.2212 -0.186742,0.4073 -0.409764,0.4073 -0.223009,0 -0.409737,-0.1861 -0.409737,-0.4073 0,-0.2211 0.186728,-0.4071 0.409737,-0.4071 0.223022,0 0.409764,0.186 0.409764,0.4071"
       id="path3951"
       inkscape:export-xdpi="90"
       inkscape:export-ydpi="90" />
    <path
       inkscape:connector-curvature="0"
       style="fill:#685c47;fill-opacity:1;fill-rule:nonzero;stroke:none"
       d="m 68.586448,1005.7774 c 0,0.2667 -0.217974,0.4895 -0.492744,0.4895 -0.269541,0 -0.492703,-0.221 -0.492703,-0.4895 0,-0.2669 0.222911,-0.4897 0.492703,-0.4897 0.27484,0 0.492744,0.221 0.492744,0.4897"
       id="path3953"
       inkscape:export-xdpi="90"
       inkscape:export-ydpi="90" />
    <path
       inkscape:connector-curvature="0"
       style="fill:#685c47;fill-opacity:1;fill-rule:nonzero;stroke:none"
       d="m 55.381062,1030.5559 c 0,0.3194 -0.25933,0.5823 -0.580898,0.5823 -0.326743,0 -0.586087,-0.2632 -0.586087,-0.5823 0,-0.3195 0.259329,-0.5824 0.586087,-0.5824 0.321582,0 0.580898,0.2633 0.580898,0.5824"
       id="path3955"
       inkscape:export-xdpi="90"
       inkscape:export-ydpi="90" />
    <path
       inkscape:connector-curvature="0"
       style="fill:#685c47;fill-opacity:1;fill-rule:nonzero;stroke:none"
       d="m 50.360336,1036.0448 c 0,0.2983 -0.243792,0.5409 -0.544604,0.5409 -0.300841,0 -0.544618,-0.2423 -0.544618,-0.5409 0,-0.2984 0.243805,-0.5361 0.544618,-0.5361 0.300812,0 0.544604,0.2387 0.544604,0.5361"
       id="path3957"
       inkscape:export-xdpi="90"
       inkscape:export-ydpi="90" />
    <path
       inkscape:connector-curvature="0"
       style="fill:#685c47;fill-opacity:1;fill-rule:nonzero;stroke:none"
       d="m 42.211999,1033.2152 c 0,0.1438 -0.11926,0.2667 -0.26968,0.2667 -0.15042,0 -0.269721,-0.1232 -0.269721,-0.2667 0,-0.151 0.119259,-0.2737 0.269721,-0.2737 0.15042,0 0.26968,0.1232 0.26968,0.2737"
       id="path3959"
       inkscape:export-xdpi="90"
       inkscape:export-ydpi="90" />
    <path
       inkscape:connector-curvature="0"
       style="fill:#685c47;fill-opacity:1;fill-rule:nonzero;stroke:none"
       d="m 67.632092,1027.0051 c 0,0.2984 -0.243764,0.5411 -0.544604,0.5411 -0.300632,0 -0.544604,-0.2422 -0.544604,-0.5411 0,-0.2949 0.243763,-0.5356 0.544604,-0.5356 0.300631,0 0.544604,0.242 0.544604,0.5356"
       id="path3961"
       inkscape:export-xdpi="90"
       inkscape:export-ydpi="90" />
    <path
       inkscape:connector-curvature="0"
       style="fill:#685c47;fill-opacity:1;fill-rule:nonzero;stroke:none"
       d="m 54.800164,1037.4154 c 0,0.158 -0.134882,0.2878 -0.295624,0.2878 -0.160798,0 -0.29045,-0.1305 -0.29045,-0.2878 0,-0.1578 0.129722,-0.2878 0.29045,-0.2878 0.160784,0 0.295624,0.1305 0.295624,0.2878"
       id="path3963"
       inkscape:export-xdpi="90"
       inkscape:export-ydpi="90" />
    <path
       inkscape:connector-curvature="0"
       style="fill:#685c47;fill-opacity:1;fill-rule:nonzero;stroke:none"
       d="m 42.211999,1041.0386 c 0,0.151 -0.11926,0.2669 -0.26968,0.2669 -0.15042,0 -0.269721,-0.1188 -0.269721,-0.2669 0,-0.151 0.119259,-0.2667 0.269721,-0.2667 0.15042,0 0.26968,0.1189 0.26968,0.2667"
       id="path3965"
       inkscape:export-xdpi="90"
       inkscape:export-ydpi="90" />
    <path
       inkscape:connector-curvature="0"
       style="fill:#685c47;fill-opacity:1;fill-rule:nonzero;stroke:none"
       d="m 63.799134,1002.2526 c 0,0.2631 -0.212671,0.4741 -0.472002,0.4741 -0.264603,0 -0.477191,-0.2105 -0.477191,-0.4741 0,-0.2634 0.212658,-0.4744 0.477191,-0.4744 0.259302,0 0.472002,0.2107 0.472002,0.4744"
       id="path3967"
       inkscape:export-xdpi="90"
       inkscape:export-ydpi="90" />
    <text
       xml:space="preserve"
       style="font-style:normal;font-weight:normal;font-size:140.85653687px;line-height:125%;font-family:sans-serif;letter-spacing:0px;word-spacing:0px;fill:#000000;fill-opacity:1;stroke:none;stroke-width:1px;stroke-linecap:butt;stroke-linejoin:miter;stroke-opacity:1"
       x="100.02799"
       y="1027.5341"
       id="text4108"
       sodipodi:linespacing="125%"
       inkscape:export-xdpi="90"
       inkscape:export-ydpi="90"
       transform="scale(1.0032066,0.99680365)"><tspan
         sodipodi:role="line"
         id="tspan4110"
         x="100.02799"
         y="1027.5341" /></text>
    <text
       y="998.58838"
       x="218.27148"
       transform="scale(0.95172969,1.0507185)"
       style="font-variant:normal;font-weight:normal;font-stretch:normal;font-size:30.82481384px;font-family:'Noto Sans';-inkscape-font-specification:'Noto Sans';writing-mode:lr-tb;fill:#695d49;fill-opacity:1;fill-rule:nonzero;stroke:none;font-style:normal;"
       id="text96"
       inkscape:export-xdpi="90"
       inkscape:export-ydpi="90">
      <tspan
         sodipodi:role="line"
         x="218.27148"
         y="998.58838"
         id="tspan3884"
         style="font-style:normal;font-variant:normal;font-weight:normal;font-stretch:normal;font-size:74.52035522px;font-family:'Noto Sans';-inkscape-font-specification:'Noto Sans';text-align:center;text-anchor:middle;fill:#695d49;fill-opacity:1;">GAGA</tspan>
    </text>
  </g>
</svg>
